<?xml version="1.0" encoding="UTF-8" standalone="no"?>
<!DOCTYPE svg PUBLIC "-//W3C//DTD SVG 1.1//EN" "http://www.w3.org/Graphics/SVG/1.1/DTD/svg11.dtd">
<svg width="100%" height="100%" viewBox="0 0 300 300" version="1.1" xmlns="http://www.w3.org/2000/svg" xmlns:xlink="http://www.w3.org/1999/xlink" xml:space="preserve" xmlns:serif="http://www.serif.com/" style="fill-rule:evenodd;clip-rule:evenodd;stroke-linejoin:round;stroke-miterlimit:2;">
    <g transform="matrix(1,0,0,1,0,-9478)">
        <g id="logo" transform="matrix(1.25289,0,0,1.17861,3466.51,-1693.83)">
            <rect x="-2766.82" y="9478.79" width="239.447" height="254.536" style="fill:none;"/>
            <g transform="matrix(0.263052,0,0,0.279629,-2755.98,9502.03)">
                <path d="M95.178,340.579L208.733,408.713L286.168,408.713L301.604,478.175C302.202,480.867 302.504,483.616 302.504,486.374C302.504,507.108 285.443,524.169 264.709,524.169C257.859,524.169 251.137,522.307 245.263,518.783L56.287,405.398C44.916,398.575 37.937,386.249 37.937,372.988C37.937,352.254 54.998,335.193 75.732,335.193C82.582,335.193 89.304,337.055 95.178,340.579ZM320.684,564.036C329.781,604.969 366.399,634.343 408.331,634.343C450.262,634.343 486.88,604.969 495.977,564.036C499.806,546.805 515.221,534.439 532.872,534.439C553.607,534.439 570.668,551.501 570.668,572.235C570.668,574.993 570.366,577.742 569.768,580.434C553.014,655.829 485.565,709.934 408.331,709.934C331.097,709.934 263.648,655.829 246.894,580.434C246.316,577.786 246.024,575.084 246.024,572.373C246.024,551.639 263.086,534.578 283.82,534.578C301.419,534.578 316.802,546.87 320.684,564.036ZM530.494,408.713L607.928,408.713L580.111,533.888C562.366,512.028 531.654,505.203 506.321,517.49L530.494,408.713ZM752.268,259.603C772.945,259.685 789.913,276.721 789.913,297.398C789.913,318.075 772.945,335.111 752.268,335.193C731.534,335.193 714.472,352.255 714.472,372.988C714.472,393.722 731.534,410.784 752.268,410.784C772.945,410.866 789.913,427.902 789.913,448.579C789.913,469.256 772.945,486.292 752.268,486.374C690.194,486.19 639.219,435.063 639.219,372.988C639.219,310.914 690.194,259.787 752.268,259.603ZM590.648,138.018C594.477,120.787 609.892,108.421 627.544,108.421C648.278,108.421 665.339,125.483 665.339,146.217C665.339,148.975 665.037,151.724 664.439,154.416L624.266,335.193L546.831,335.193L590.648,138.018ZM502.725,297.351L502.725,448.344C502.725,469.052 485.685,486.093 464.977,486.093C444.268,486.093 427.228,469.052 427.228,448.344L427.228,297.351C427.228,276.643 444.268,259.602 464.977,259.602C485.685,259.602 502.725,276.643 502.725,297.351ZM389.433,297.398L389.433,448.579C389.351,469.256 372.315,486.224 351.638,486.224C330.961,486.224 313.925,469.256 313.843,448.579L313.843,297.398C313.925,276.721 330.961,259.753 351.638,259.753C372.315,259.753 389.351,276.721 389.433,297.398ZM209.49,63.662L269.83,335.193L192.396,335.193L135.699,80.06C135.101,77.368 134.799,74.619 134.799,71.861C134.799,51.127 151.86,34.066 172.595,34.066C190.246,34.066 205.661,46.431 209.49,63.662Z"/>
            </g>
        </g>
    </g>
</svg>
